<svg width="50" height="50" viewBox="0 0 50 50" fill="none" xmlns="http://www.w3.org/2000/svg">
<circle cx="25" cy="25" r="25" fill="white"/>
<path d="M21.0001 14.0001C21.1317 13.9993 21.2622 14.0245 21.384 14.0743C21.5059 14.1241 21.6167 14.1974 21.7101 14.2901L30.2901 22.8801C30.8519 23.4426 31.1675 24.2051 31.1675 25.0001C31.1675 25.7951 30.8519 26.5576 30.2901 27.1201L21.7101 35.7101C21.5218 35.8984 21.2664 36.0042 21.0001 36.0042C20.7338 36.0042 20.4784 35.8984 20.2901 35.7101C20.1018 35.5218 19.996 35.2664 19.996 35.0001C19.996 34.7338 20.1018 34.4784 20.2901 34.2901L28.8801 25.7101C28.9738 25.6171 29.0482 25.5065 29.099 25.3846C29.1498 25.2628 29.1759 25.1321 29.1759 25.0001C29.1759 24.868 29.1498 24.7373 29.099 24.6155C29.0482 24.4936 28.9738 24.383 28.8801 24.2901L20.2901 15.7101C20.1964 15.6171 20.122 15.5065 20.0712 15.3846C20.0205 15.2628 19.9943 15.1321 19.9943 15.0001C19.9943 14.868 20.0205 14.7373 20.0712 14.6155C20.122 14.4936 20.1964 14.383 20.2901 14.2901C20.3836 14.1974 20.4944 14.1241 20.6162 14.0743C20.7381 14.0245 20.8685 13.9993 21.0001 14.0001Z" fill="#726DA8"/>
</svg>
