<svg width="50" height="50" viewBox="0 0 50 50" fill="none" xmlns="http://www.w3.org/2000/svg">
<circle cx="25" cy="25" r="25" fill="white"/>
<path d="M29 35.9999C28.8684 36.0007 28.7379 35.9755 28.6161 35.9257C28.4943 35.8759 28.3834 35.8026 28.29 35.7099L19.71 27.1199C19.1482 26.5574 18.8326 25.7949 18.8326 24.9999C18.8326 24.2049 19.1482 23.4424 19.71 22.8799L28.29 14.2899C28.4783 14.1016 28.7337 13.9958 29 13.9958C29.2663 13.9958 29.5217 14.1016 29.71 14.2899C29.8983 14.4782 30.0041 14.7336 30.0041 14.9999C30.0041 15.2662 29.8983 15.5216 29.71 15.7099L21.12 24.2899C21.0263 24.3829 20.9519 24.4935 20.9011 24.6154C20.8503 24.7372 20.8242 24.8679 20.8242 24.9999C20.8242 25.132 20.8503 25.2627 20.9011 25.3845C20.9519 25.5064 21.0263 25.617 21.12 25.7099L29.71 34.2899C29.8037 34.3829 29.8781 34.4935 29.9289 34.6154C29.9797 34.7372 30.0058 34.8679 30.0058 34.9999C30.0058 35.132 29.9797 35.2627 29.9289 35.3845C29.8781 35.5064 29.8037 35.617 29.71 35.7099C29.6166 35.8026 29.5057 35.8759 29.3839 35.9257C29.2621 35.9755 29.1316 36.0007 29 35.9999Z" fill="#726DA8"/>
</svg>
