<svg width="50" height="50" viewBox="0 0 50 50" fill="none" xmlns="http://www.w3.org/2000/svg">
<circle cx="25" cy="25" r="25" fill="white"/>
<path d="M21 14.0001C21.1316 13.9993 21.2621 14.0245 21.3839 14.0743C21.5057 14.1241 21.6166 14.1974 21.71 14.2901L30.29 22.8801C30.8518 23.4426 31.1674 24.2051 31.1674 25.0001C31.1674 25.7951 30.8518 26.5576 30.29 27.1201L21.71 35.7101C21.5217 35.8984 21.2663 36.0042 21 36.0042C20.7337 36.0042 20.4783 35.8984 20.29 35.7101C20.1017 35.5218 19.9959 35.2664 19.9959 35.0001C19.9959 34.7338 20.1017 34.4784 20.29 34.2901L28.88 25.7101C28.9737 25.6171 29.0481 25.5065 29.0989 25.3846C29.1497 25.2628 29.1758 25.1321 29.1758 25.0001C29.1758 24.868 29.1497 24.7373 29.0989 24.6155C29.0481 24.4936 28.9737 24.383 28.88 24.2901L20.29 15.7101C20.1963 15.6171 20.1219 15.5065 20.0711 15.3846C20.0203 15.2628 19.9942 15.1321 19.9942 15.0001C19.9942 14.868 20.0203 14.7373 20.0711 14.6155C20.1219 14.4936 20.1963 14.383 20.29 14.2901C20.3834 14.1974 20.4943 14.1241 20.6161 14.0743C20.7379 14.0245 20.8684 13.9993 21 14.0001Z" fill="#BEE7E8"/>
</svg>
