<svg width="32" height="32" viewBox="0 0 32 32" fill="none" xmlns="http://www.w3.org/2000/svg">
    <symbol id="check_small">
        <circle cx="16" cy="16" r="16" fill="#BEE7E8"/>
        <path d="M22.4517 10C22.2486 9.99991 22.0474 10.0399 21.8597 10.1178C21.672 10.1957 21.5016 10.3098 21.3581 10.4537L14.1946 17.6163L10.6447 14.0661C10.5011 13.9219 10.3304 13.8074 10.1425 13.7292C9.95453 13.6511 9.75303 13.6107 9.54949 13.6105C9.34595 13.6103 9.14437 13.6503 8.95629 13.7281C8.7682 13.8058 8.59731 13.92 8.45338 14.0639C8.30946 14.2078 8.19533 14.3787 8.11753 14.5668C8.03974 14.7549 7.9998 14.9565 8 15.16C8.0002 15.3635 8.04055 15.565 8.11872 15.753C8.19689 15.9409 8.31136 16.1116 8.45557 16.2552L13.1 20.9C13.2437 21.0438 13.4144 21.1579 13.6022 21.2357C13.79 21.3135 13.9913 21.3536 14.1946 21.3536C14.3979 21.3536 14.5992 21.3135 14.787 21.2357C14.9748 21.1579 15.1454 21.0438 15.2891 20.9L23.5463 12.6428C23.7629 12.4263 23.9104 12.1505 23.9702 11.8502C24.03 11.5499 23.9994 11.2385 23.8822 10.9556C23.765 10.6727 23.5666 10.4309 23.3119 10.2608C23.0573 10.0907 22.758 9.99994 22.4517 10Z" fill="white"/>
    </symbol>
</svg>
