<svg width="24" height="24" viewBox="0 0 24 24" fill="none" xmlns="http://www.w3.org/2000/svg">
<path d="M13.5374 11.9981L23.6775 1.86893C23.8828 1.66362 23.9981 1.38515 23.9981 1.0948C23.9981 0.804438 23.8828 0.525972 23.6775 0.320658C23.4722 0.115344 23.1937 0 22.9033 0C22.613 0 22.3345 0.115344 22.1292 0.320658L12 10.4608L1.87079 0.320658C1.66548 0.115344 1.38701 -2.16333e-09 1.09666 0C0.806299 2.16333e-09 0.527833 0.115344 0.322519 0.320658C0.117205 0.525972 0.00186077 0.804438 0.00186076 1.0948C0.00186076 1.38515 0.117205 1.66362 0.322519 1.86893L10.4626 11.9981L0.322519 22.1273C0.220324 22.2287 0.139209 22.3493 0.0838545 22.4822C0.0284997 22.615 0 22.7575 0 22.9015C0 23.0454 0.0284997 23.1879 0.0838545 23.3208C0.139209 23.4537 0.220324 23.5743 0.322519 23.6756C0.42388 23.7778 0.544472 23.8589 0.677339 23.9143C0.810206 23.9696 0.952719 23.9981 1.09666 23.9981C1.24059 23.9981 1.38311 23.9696 1.51597 23.9143C1.64884 23.8589 1.76943 23.7778 1.87079 23.6756L12 13.5355L22.1292 23.6756C22.2306 23.7778 22.3512 23.8589 22.484 23.9143C22.6169 23.9696 22.7594 23.9981 22.9033 23.9981C23.0473 23.9981 23.1898 23.9696 23.3227 23.9143C23.4555 23.8589 23.5761 23.7778 23.6775 23.6756C23.7797 23.5743 23.8608 23.4537 23.9161 23.3208C23.9715 23.1879 24 23.0454 24 22.9015C24 22.7575 23.9715 22.615 23.9161 22.4822C23.8608 22.3493 23.7797 22.2287 23.6775 22.1273L13.5374 11.9981Z" fill="#394573"/>
</svg>
